<?xml version="1.0" encoding="UTF-8" standalone="no"?>
<!DOCTYPE svg PUBLIC "-//W3C//DTD SVG 1.1//EN" "http://www.w3.org/Graphics/SVG/1.1/DTD/svg11.dtd">
<svg width="100%" height="100%" viewBox="0 0 201 144" version="1.1" xmlns="http://www.w3.org/2000/svg" xmlns:xlink="http://www.w3.org/1999/xlink" xml:space="preserve" xmlns:serif="http://www.serif.com/" style="fill-rule:evenodd;clip-rule:evenodd;stroke-linejoin:round;stroke-miterlimit:2;">
    <g id="Artboard1" transform="matrix(1,0,0,1,-44.24,-72.9184)">
        <rect x="44.24" y="72.918" width="200.05" height="143.382" style="fill:none;"/>
        <clipPath id="_clip1">
            <rect x="44.24" y="72.918" width="200.05" height="143.382"/>
        </clipPath>
        <g clip-path="url(#_clip1)">
            <g transform="matrix(1,0,0,1,0.24,0.9184)">
                <path d="M145.32,72.92C119.79,72.92 94.26,72.91 68.73,72.95C67.28,72.95 65.78,73.17 64.41,73.62C61.97,74.41 61.06,76.55 62.24,78.82C63,80.29 64.06,81.67 65.22,82.85C88.99,107.01 112.78,131.14 136.6,155.25C141.57,160.28 148.25,160.29 153.22,155.29C177.22,131.16 201.19,107 225.15,82.83C226.18,81.79 227.18,80.66 227.91,79.4C229.55,76.56 228.63,74.38 225.43,73.46C224.17,73.1 222.81,72.94 221.5,72.94C196.11,72.91 170.72,72.92 145.33,72.92L145.32,72.92ZM114.26,155.79C113.76,156.37 113.17,157.16 112.49,157.86C105.37,165.15 98.23,172.42 91.1,179.71C82.11,188.91 73.11,198.09 64.15,207.32C62.51,209.01 60.9,211.05 61.99,213.5C63.09,215.99 65.67,216.3 68.13,216.3C119.03,216.3 169.93,216.3 220.84,216.28C222.15,216.28 223.51,216.04 224.75,215.63C227.2,214.82 228.19,212.53 226.99,210.24C226.26,208.83 225.26,207.5 224.14,206.36C210.51,192.36 196.85,178.39 183.17,164.44C180.43,161.65 177.55,159 174.74,156.29C171.39,159.59 167.86,162.81 164.63,166.31C154.33,177.45 135.59,177.42 125.25,166.35C121.9,162.76 118.17,159.53 114.26,155.81L114.26,155.79ZM44.24,93.63C44.53,93.46 44.95,93.36 45.09,93.1C46.48,90.54 48.32,89.95 50.84,91.45C51.91,92.09 52.89,92.94 53.78,93.83C70.19,110.41 86.58,127.02 102.97,143.62C103.12,143.77 103.23,143.95 103.5,144.31C102.73,145.14 101.96,146.01 101.15,146.84C85.54,162.83 69.94,178.83 54.29,194.79C53.08,196.02 51.66,197.16 50.14,197.95C47.98,199.08 46.5,198.44 45.22,196.33C44.99,195.95 44.58,195.67 44.25,195.35L44.25,93.63L44.24,93.63ZM244.29,196.62C240.82,199.18 238.88,198.86 235.18,195.07C229.73,189.49 224.31,183.88 218.85,178.3C208.39,167.59 197.93,156.87 187.41,146.22C186.22,145.02 186.28,144.34 187.43,143.19C203.37,127.23 219.26,111.22 235.17,95.23L235.47,94.93C239.08,91.47 240.27,91.3 244.28,93.63L244.28,196.62L244.29,196.62Z" style="fill:white;fill-rule:nonzero;"/>
            </g>
        </g>
    </g>
</svg>
