<svg xmlns="http://www.w3.org/2000/svg" viewBox="0 0 248 255" fill-rule="nonzero" stroke-linejoin="round" stroke-miterlimit="2" fill="#ffffff">
	<path d="M226.907 127.709c0-57.589-45.758-104.268-102.211-104.268S22.484 70.119 22.484 127.709c0 22.463 6.96 43.246 18.801 60.27v.007l-11.32 37.962 39.467-10.512c15.929 10.469 34.898 16.541 55.263 16.541 56.453 0 102.211-46.68 102.211-104.268zM124 .742c68.356 0 123.766 56.524 123.766 126.257S192.356 253.256 124 253.256a121.25 121.25 0 0 1-58.983-15.236h-.014L.234 254.902l17.188-63.675v-.007C6.499 172.409.234 150.456.234 126.999.234 57.266 55.644.742 124 .742zm60.749 154.623c1.774.794 2.893 2.617 2.796 4.589-.258 5-1.76 14.172-8.97 20.995-5.903 5.583-12.856 6.959-15.582 7.462-3.219.603-7.627.915-15.352-.716-9.269-1.958-17.578-5.504-26.686-10.845-15.395-9.023-25.72-18.861-29.753-22.883-8.086-8.057-19.74-19.896-26.686-38.061-3.31-8.668-4.005-14.711-3.539-20.237.806-9.646 4.992-16.208 5.903-17.584 2.03-3.085 4.262-5.419 6.209-7.128a8.11 8.11 0 0 1 5.354-2.029h10.013c2.099 0 3.998 1.27 4.825 3.235l11.188 26.308c1.258 2.972.646 6.426-1.565 8.753l-8.267 8.717a4.36 4.36 0 0 0-.751 4.894c1.008 2.072 2.371 4.604 4.165 7.356 9.602 14.739 22.709 22.138 29.752 26.017a99.02 99.02 0 0 0 9.735 4.675 3.86 3.86 0 0 0 4.568-1.242l10.221-13.434c1.133-1.482 3.108-1.993 4.798-1.241l27.624 12.399z"/>
</svg>