<?xml version="1.0" encoding="UTF-8" standalone="no"?>
<!DOCTYPE svg PUBLIC "-//W3C//DTD SVG 1.1//EN" "http://www.w3.org/Graphics/SVG/1.1/DTD/svg11.dtd">
<svg width="100%" height="100%" viewBox="0 0 713 284" version="1.1" xmlns="http://www.w3.org/2000/svg" xmlns:xlink="http://www.w3.org/1999/xlink" xml:space="preserve" xmlns:serif="http://www.serif.com/" style="fill-rule:evenodd;clip-rule:evenodd;stroke-linejoin:round;stroke-miterlimit:2;">
    <circle cx="142" cy="142" r="142" style="fill:rgb(109,133,86);"/>
    <path d="M148.19,284.73C134.794,283.45 121.855,279.178 110.33,272.23C86.32,257.791 69.79,233.546 65.12,205.92C63.958,199.011 63.605,191.99 64.07,185C64.307,181.517 64.752,178.051 65.4,174.62C66.027,171.176 66.895,167.781 68,164.46C72.454,151.134 80.517,139.3 91.29,130.28C96.525,125.894 102.265,122.151 108.39,119.13C114.438,116.123 120.814,113.828 127.39,112.29C140.49,109.174 154.13,109.085 167.27,112.03C173.906,113.575 180.284,116.067 186.21,119.43C192.201,122.863 197.64,127.182 202.34,132.24C207.126,137.382 211.044,143.269 213.94,149.67C215.419,152.895 216.62,156.241 217.53,159.67C218.422,163.138 219.031,166.673 219.35,170.24C219.67,173.826 219.67,177.434 219.35,181.02C219.25,181.92 219.19,182.82 219.07,183.71L218.66,186.39C218.3,188.18 217.83,189.99 217.41,191.8C215.343,198.999 211.797,205.688 207,211.44C202.181,217.2 196.253,221.934 189.57,225.36C179.462,230.525 168.044,232.576 156.77,231.25L153.98,230.84C153.037,230.72 152.102,230.543 151.18,230.31C149.28,229.892 147.41,229.351 145.58,228.69C144.66,228.35 143.73,228.04 142.83,227.69L140.19,226.42L138.88,225.78C138.45,225.54 138.04,225.28 137.62,225.03L135.12,223.5C131.869,221.316 128.903,218.736 126.29,215.82C123.68,212.904 121.437,209.68 119.61,206.22C118.709,204.482 117.921,202.689 117.25,200.85C116.93,199.92 116.59,199 116.3,198.07L115.6,195.22L115.27,193.79L115.05,192.33L114.65,189.42C114.59,188.42 114.56,187.42 114.52,186.49C114.455,185.514 114.455,184.536 114.52,183.56L114.71,180.64C114.77,179.64 115.01,178.71 115.15,177.75C115.29,176.79 115.45,175.85 115.72,174.88L116.55,171.96C117.846,168.142 119.728,164.549 122.13,161.31C124.552,158.142 127.458,155.375 130.74,153.11C131.57,152.57 132.36,151.97 133.23,151.51L135.83,150.13C137.605,149.306 139.437,148.607 141.31,148.04C145.027,146.899 148.903,146.366 152.79,146.46C153.749,146.457 154.708,146.513 155.66,146.63C156.617,146.689 157.569,146.809 158.51,146.99C159.45,147.18 160.39,147.35 161.32,147.55L164.15,148.41C167.851,149.735 171.271,151.743 174.23,154.33C177.13,156.886 179.507,159.98 181.23,163.44C182.923,166.875 183.909,170.616 184.13,174.44L184.13,177.26C184.13,178.19 183.95,179.13 183.86,180.06C183.77,180.99 183.49,181.89 183.3,182.8C183.11,183.71 182.74,184.62 182.42,185.5C181.019,188.998 178.768,192.092 175.87,194.5C173.053,196.763 169.727,198.307 166.18,199C162.762,199.64 159.239,199.448 155.91,198.44L156.22,196.97C159.294,197.259 162.394,196.852 165.29,195.78C168.043,194.739 170.511,193.059 172.49,190.88C174.365,188.799 175.691,186.283 176.35,183.56C176.48,182.88 176.6,182.22 176.68,181.56C176.76,180.9 176.8,180.16 176.83,179.47L176.77,177.39L176.49,175.39C175.497,170.013 172.451,165.227 168,162.05C165.865,160.551 163.467,159.468 160.93,158.86L159.03,158.5L157.03,158.3C156.366,158.227 155.697,158.204 155.03,158.23C154.363,158.2 153.694,158.22 153.03,158.29C150.4,158.468 147.812,159.052 145.36,160.02C144.151,160.494 142.975,161.048 141.84,161.68L140.21,162.68C139.66,163.02 139.21,163.47 138.67,163.84C136.684,165.419 134.956,167.298 133.55,169.41C132.229,171.507 131.218,173.784 130.55,176.17L130.15,177.98C130,178.58 129.98,179.28 129.89,179.91C129.789,180.556 129.722,181.207 129.69,181.86L129.69,183.86C129.666,184.508 129.693,185.156 129.77,185.8L129.93,187.74L130.29,189.65L130.45,190.65L130.73,191.58L131.26,193.45C131.48,194.06 131.75,194.66 131.98,195.26C132.461,196.465 133.012,197.64 133.63,198.78C134.898,201.049 136.443,203.152 138.23,205.04C139.109,205.995 140.044,206.897 141.03,207.74C141.513,208.177 142.024,208.581 142.56,208.95C143.09,209.33 143.56,209.75 144.13,210.1L145.8,211.1L146.64,211.61L147.52,212.02L149.28,212.87C149.88,213.13 150.5,213.33 151.11,213.57C152.328,214.037 153.578,214.418 154.85,214.71C155.506,214.893 156.174,215.026 156.85,215.11L158.85,215.44C161.569,215.816 164.317,215.944 167.06,215.82C178.225,215.299 188.748,210.404 196.34,202.2C200.093,198.065 202.953,193.2 204.74,187.91C205.11,186.56 205.54,185.24 205.9,183.91L206.36,181.78C206.51,181.07 206.59,180.35 206.72,179.64C207.155,176.757 207.376,173.846 207.38,170.93C207.323,165.02 206.338,159.155 204.46,153.55C198.517,135.732 184.086,121.988 166,116.92C153.751,113.565 140.819,113.585 128.58,116.98C116.473,120.376 105.54,127.061 97,136.29C88.738,145.248 82.888,156.161 80,168C78.599,173.857 77.758,179.834 77.49,185.85C77.194,191.879 77.466,197.922 78.3,203.9C80.095,215.949 84.226,227.533 90.46,238C96.806,248.646 105.081,258.016 114.86,265.63C124.958,273.434 136.338,279.421 148.49,283.32L148.19,284.73Z" style="fill:white;fill-rule:nonzero;"/>
    <path d="M173.57,61.06C173.374,70.054 170.631,78.811 165.66,86.31C163.038,90.171 159.63,93.436 155.66,95.89C155.164,96.221 154.642,96.512 154.1,96.76L152.5,97.56C151.962,97.819 151.407,98.042 150.84,98.23L149.13,98.84C147.98,99.17 146.78,99.39 145.6,99.67C144.42,99.95 143.19,99.93 141.97,100.06C137.049,100.206 132.166,99.156 127.74,97C123.313,94.834 119.386,91.768 116.21,88C109.955,80.391 106.432,70.898 106.21,61.05C105.854,50.984 108.829,41.076 114.67,32.87C115.428,31.818 116.253,30.816 117.14,29.87C118.026,28.901 118.982,27.998 120,27.17C121.992,25.427 124.176,23.917 126.51,22.67C131.278,20.158 136.613,18.915 142,19.06C147.338,19.237 152.526,20.873 157,23.79C161.19,26.561 164.69,30.256 167.23,34.59C169.608,38.647 171.329,43.055 172.33,47.65C173.286,52.053 173.703,56.556 173.57,61.06ZM172.37,61.06C172.228,56.751 171.243,52.51 169.47,48.58C167.74,44.783 165.253,41.38 162.16,38.58C159.308,35.96 155.973,33.922 152.34,32.58C149.031,31.382 145.514,30.865 142,31.06C135.17,31.41 128.81,34.84 124,40.3C118.974,46.072 116.097,53.41 115.86,61.06C115.544,68.924 117.871,76.672 122.47,83.06C124.752,86.198 127.656,88.833 131,90.8C134.351,92.754 138.125,93.873 142,94.06C145.984,94.231 149.954,93.492 153.61,91.9C157.429,90.232 160.862,87.791 163.69,84.73C166.608,81.57 168.863,77.857 170.32,73.81C171.783,69.723 172.478,65.4 172.37,61.06Z" style="fill:white;fill-rule:nonzero;"/>
    <path d="M170.61,274.74L165.62,273.99L165.99,272.4L170.8,273.66L170.61,274.74Z" style="fill:white;fill-rule:nonzero;"/>
    <path d="M158.7,272.51L153.82,271.12L154.77,268.48L159.39,270.26L158.7,272.51Z" style="fill:white;fill-rule:nonzero;"/>
    <path d="M147.1,268.76L142.41,266.79L144.15,263.32L148.49,265.62L147.1,268.76Z" style="fill:white;fill-rule:nonzero;"/>
    <path d="M135.99,263.63L131.54,261.09L134.28,256.96L138.29,259.75L135.99,263.63Z" style="fill:white;fill-rule:nonzero;"/>
    <path d="M125.52,257.15L121.41,254.04L125.29,249.52L128.93,252.74L125.52,257.15Z" style="fill:white;fill-rule:nonzero;"/>
    <path d="M115.92,249.33L112.21,245.72L117.31,241.1L120.5,244.72L115.92,249.33Z" style="fill:white;fill-rule:nonzero;"/>
    <path d="M107.34,240.31L104.14,236.2L110.49,231.81L113.19,235.77L107.34,240.31Z" style="fill:white;fill-rule:nonzero;"/>
    <path d="M100.04,230.14L97.41,225.6L104.98,221.79L107.1,226.05L100.04,230.14Z" style="fill:white;fill-rule:nonzero;"/>
    <path d="M94.16,218.99L92.17,214.1L100.98,211.15L102.44,215.64L94.16,218.99Z" style="fill:white;fill-rule:nonzero;"/>
    <path d="M89.92,206.91L88.71,201.75L99.02,200.14L99.64,204.81L89.92,206.91Z" style="fill:white;fill-rule:nonzero;"/>
    <path d="M87.56,194.38C87.42,192.61 87.29,190.83 87.2,189.05L98.54,188.94C98.54,190.49 98.6,192.04 98.54,193.6L87.56,194.38Z" style="fill:white;fill-rule:nonzero;"/>
    <path d="M87.4,181.55C87.61,179.77 87.83,178 88.08,176.23L99.24,177.84C99.12,179.38 98.98,180.91 98.82,182.45L87.4,181.55Z" style="fill:white;fill-rule:nonzero;"/>
    <path d="M89.77,168.89C90.32,167.19 90.88,165.48 91.47,163.8L101.2,166.9C100.88,168.42 100.55,169.9 100.2,171.43L89.77,168.89Z" style="fill:white;fill-rule:nonzero;"/>
    <path d="M94.54,157C95.41,155.44 96.32,153.9 97.21,152.37L104.7,156.37C104.15,157.85 103.61,159.31 103.05,160.75L94.54,157Z" style="fill:white;fill-rule:nonzero;"/>
    <path d="M101.61,146.32C102.79,144.99 104,143.7 105.18,142.42L109.83,146.12C109.04,147.52 108.28,148.92 107.49,150.28L101.61,146.32Z" style="fill:white;fill-rule:nonzero;"/>
    <path d="M110.74,137.64C112.16,136.64 113.62,135.69 115.04,134.74L116.58,136.52C115.58,137.85 114.58,139.19 113.58,140.45L110.74,137.64Z" style="fill:white;fill-rule:nonzero;"/>
    <g id="Artboard1" transform="matrix(356.5,0,0,10.5185,16399,-504.889)">
        <rect x="-46" y="48" width="2" height="27" style="fill:none;"/>
        <clipPath id="_clip1">
            <rect x="-46" y="48" width="2" height="27"/>
        </clipPath>
        <g clip-path="url(#_clip1)">
            <g transform="matrix(0.00280505,0,0,0.0295775,-46.0084,54.8662)">
                <path d="M370.76,118.034C370.76,130.686 370.28,142.18 369.32,152.517C368.36,162.854 366.908,171.841 364.964,179.479C363.02,187.116 360.608,192.979 357.728,197.067C354.848,201.156 351.488,203.2 347.648,203.2C343.76,203.2 340.364,201.117 337.46,196.951C334.556,192.786 332.144,186.923 330.224,179.363C328.304,171.803 326.864,162.816 325.904,152.401C324.944,141.987 324.464,130.454 324.464,117.803C324.464,100.986 325.34,86.213 327.092,73.484C328.844,60.756 331.46,50.843 334.94,43.746C338.42,36.649 342.728,33.1 347.864,33.1C352.808,33.1 356.984,36.533 360.392,43.399C363.8,50.264 366.38,60.023 368.132,72.674C369.884,85.326 370.76,100.446 370.76,118.034ZM328.856,117.803C328.856,132.46 329.528,145.304 330.872,156.336C332.216,167.367 334.292,175.93 337.1,182.024C339.908,188.119 343.424,191.166 347.648,191.166C351.968,191.166 355.508,188.157 358.268,182.14C361.028,176.123 363.068,167.599 364.388,156.567C365.708,145.536 366.368,132.691 366.368,118.034C366.368,95.046 364.82,77.149 361.724,64.343C358.628,51.537 354.008,45.134 347.864,45.134C343.592,45.134 340.04,48.143 337.208,54.16C334.376,60.177 332.276,68.663 330.908,79.617C329.54,90.571 328.856,103.3 328.856,117.803Z" style="fill:rgb(109,133,86);fill-rule:nonzero;"/>
                <path d="M405.752,169.886C405.752,176.921 405.176,182.894 404.024,187.804C402.872,192.714 401.192,196.489 398.984,199.127C396.776,201.765 394.088,203.084 390.92,203.084C388.232,203.084 385.868,202.351 383.828,200.886C381.788,199.42 380.048,197.661 378.608,195.609L378.608,183.517C380.336,186.009 382.268,188.134 384.404,189.893C386.54,191.652 388.736,192.531 390.992,192.531C394.784,192.531 397.52,190.552 399.2,186.595C400.88,182.638 401.72,177.361 401.72,170.765C401.72,166.368 401.324,162.741 400.532,159.882C399.74,157.024 398.564,154.459 397.004,152.187C395.444,149.915 393.512,147.607 391.208,145.262C388.856,142.77 386.768,140.242 384.944,137.677C383.12,135.112 381.704,131.851 380.696,127.893C379.688,123.936 379.184,118.513 379.184,111.624C379.184,102.097 380.432,94.731 382.928,89.528C385.424,84.325 388.76,81.723 392.936,81.723C395.24,81.723 397.4,82.383 399.416,83.702C401.432,85.021 403.256,86.78 404.888,88.978L403.376,99.312C401.888,97.26 400.22,95.574 398.372,94.255C396.524,92.936 394.64,92.276 392.72,92.276C389.696,92.276 387.344,93.889 385.664,97.113C383.984,100.338 383.144,105.028 383.144,111.184C383.144,115.728 383.552,119.355 384.368,122.067C385.184,124.778 386.372,127.124 387.932,129.102C389.492,131.081 391.352,133.243 393.512,135.588C395.816,138.08 397.892,140.645 399.74,143.283C401.588,145.921 403.052,149.293 404.132,153.397C405.212,157.501 405.752,162.997 405.752,169.886Z" style="fill:rgb(109,133,86);fill-rule:nonzero;"/>
                <path d="M426.2,192.311C427.304,192.311 428.336,192.055 429.296,191.542C430.256,191.029 431.072,190.406 431.744,189.673L431.744,199.786C431.024,200.666 430.136,201.435 429.08,202.095C428.024,202.754 426.896,203.084 425.696,203.084C423.584,203.084 421.784,201.875 420.296,199.457C418.808,197.038 417.668,193.264 416.876,188.134C416.084,183.004 415.688,176.408 415.688,168.347L415.688,94.035L410,94.035L410,87L415.688,82.822L417.128,56L419.792,56L419.792,83.922L431.528,83.922L431.528,94.035L419.792,94.035L419.792,167.687C419.792,175.749 420.308,181.868 421.34,186.045C422.372,190.223 423.992,192.311 426.2,192.311Z" style="fill:rgb(109,133,86);fill-rule:nonzero;"/>
                <path d="M454.424,81.723C457.688,81.723 460.424,84.032 462.632,88.649C464.84,93.266 466.496,99.605 467.6,107.666C468.704,115.728 469.256,124.962 469.256,135.368L469.256,143.943L441.896,143.943C441.944,159.479 443.144,171.388 445.496,179.669C447.848,187.951 451.232,192.091 455.648,192.091C458,192.091 460.064,191.468 461.84,190.223C463.616,188.977 465.56,186.961 467.672,184.177L467.672,195.609C465.8,198.101 463.916,199.97 462.02,201.216C460.124,202.461 457.952,203.084 455.504,203.084C451.664,203.084 448.412,200.666 445.748,195.829C443.084,190.992 441.068,184.067 439.7,175.052C438.332,166.038 437.648,155.449 437.648,143.283C437.648,131.411 438.308,120.821 439.628,111.514C440.948,102.206 442.856,94.915 445.352,89.638C447.848,84.361 450.872,81.723 454.424,81.723ZM454.352,92.276C450.848,92.276 448.016,95.831 445.856,102.939C443.696,110.048 442.424,120.271 442.04,133.609L465.008,133.609C465.008,125.401 464.624,118.219 463.856,112.063C463.088,105.907 461.924,101.071 460.364,97.553C458.804,94.035 456.8,92.276 454.352,92.276Z" style="fill:rgb(109,133,86);fill-rule:nonzero;"/>
                <path d="M511.664,142.184C511.664,151.418 511.292,159.736 510.548,167.138C509.804,174.539 508.7,180.915 507.236,186.265C505.772,191.615 503.972,195.756 501.836,198.687C499.7,201.619 497.24,203.084 494.456,203.084C491.816,203.084 489.44,201.655 487.328,198.797C485.216,195.939 483.428,191.835 481.964,186.485C480.5,181.135 479.372,174.723 478.58,167.248C477.788,159.772 477.392,151.418 477.392,142.184C477.392,129.579 478.088,118.769 479.48,109.755C480.872,100.741 482.864,93.815 485.456,88.978C488.048,84.142 491.144,81.723 494.744,81.723C498.44,81.723 501.536,84.251 504.032,89.308C506.528,94.365 508.424,101.4 509.72,110.414C511.016,119.429 511.664,130.018 511.664,142.184ZM481.64,142.184C481.64,152.151 482.108,160.908 483.044,168.457C483.98,176.005 485.396,181.868 487.292,186.045C489.188,190.223 491.6,192.311 494.528,192.311C497.504,192.311 499.94,190.223 501.836,186.045C503.732,181.868 505.136,176.005 506.048,168.457C506.96,160.908 507.416,152.151 507.416,142.184C507.416,132.51 506.984,123.936 506.12,116.461C505.256,108.985 503.888,103.123 502.016,98.872C500.144,94.621 497.696,92.496 494.672,92.496C490.352,92.496 487.1,96.893 484.916,105.688C482.732,114.482 481.64,126.647 481.64,142.184Z" style="fill:rgb(109,133,86);fill-rule:nonzero;"/>
                <path d="M539.312,81.723C544.208,81.723 548.024,86.743 550.76,96.783C553.496,106.823 554.864,121.81 554.864,141.744C554.864,154.936 554.216,166.112 552.92,175.272C551.624,184.433 549.788,191.359 547.412,196.049C545.036,200.739 542.192,203.084 538.88,203.084C536.672,203.084 534.728,202.058 533.048,200.006C531.368,197.954 529.976,195.243 528.872,191.872C527.768,188.5 526.88,184.763 526.208,180.659L525.92,180.659C526.016,184.323 526.088,188.317 526.136,192.641C526.184,196.965 526.208,200.959 526.208,204.623L526.208,252.772L522.104,252.772L522.104,83.922L525.488,83.922L525.992,105.688L526.208,105.688C526.88,101.437 527.78,97.48 528.908,93.815C530.036,90.151 531.464,87.22 533.192,85.021C534.92,82.822 536.96,81.723 539.312,81.723ZM538.736,92.496C535.904,92.496 533.564,94.328 531.716,97.993C529.868,101.657 528.5,107.043 527.612,114.152C526.724,121.261 526.256,129.945 526.208,140.205L526.208,142.404C526.208,153.543 526.652,162.777 527.54,170.106C528.428,177.434 529.772,182.967 531.572,186.705C533.372,190.443 535.664,192.311 538.448,192.311C541.088,192.311 543.308,190.259 545.108,186.155C546.908,182.051 548.276,176.225 549.212,168.677C550.148,161.128 550.616,152.077 550.616,141.524C550.616,125.695 549.632,113.566 547.664,105.138C545.696,96.71 542.72,92.496 538.736,92.496Z" style="fill:rgb(109,133,86);fill-rule:nonzero;"/>
                <path d="M578.768,81.943C583.088,81.943 586.304,85.131 588.416,91.507C590.528,97.883 591.584,108.106 591.584,122.177L591.584,200.886L588.488,200.886L587.768,181.099L587.552,181.099C586.64,185.496 585.596,189.343 584.42,192.641C583.244,195.939 581.828,198.504 580.172,200.336C578.516,202.168 576.512,203.084 574.16,203.084C571.712,203.084 569.6,201.802 567.824,199.237C566.048,196.672 564.68,192.971 563.72,188.134C562.76,183.297 562.28,177.361 562.28,170.326C562.28,158.6 563.84,149.696 566.96,143.613C570.08,137.53 574.616,134.122 580.568,133.39L587.552,132.29L587.552,124.156C587.552,112.576 586.796,104.405 585.284,99.641C583.772,94.878 581.552,92.496 578.624,92.496C576.656,92.496 574.76,93.266 572.936,94.805C571.112,96.344 569.288,98.506 567.464,101.29L566.168,91.177C567.992,88.539 569.972,86.34 572.108,84.581C574.244,82.822 576.464,81.943 578.768,81.943ZM581.072,142.624C576.224,143.356 572.6,145.958 570.2,150.428C567.8,154.899 566.6,161.531 566.6,170.326C566.6,177.508 567.332,183.004 568.796,186.815C570.26,190.626 572.288,192.531 574.88,192.531C578.912,192.531 582.02,189.05 584.204,182.088C586.388,175.126 587.504,165.489 587.552,153.177L587.552,141.744L581.072,142.624Z" style="fill:rgb(109,133,86);fill-rule:nonzero;"/>
                <path d="M614.624,192.311C615.728,192.311 616.76,192.055 617.72,191.542C618.68,191.029 619.496,190.406 620.168,189.673L620.168,199.786C619.448,200.666 618.56,201.435 617.504,202.095C616.448,202.754 615.32,203.084 614.12,203.084C612.008,203.084 610.208,201.875 608.72,199.457C607.232,197.038 606.092,193.264 605.3,188.134C604.508,183.004 604.112,176.408 604.112,168.347L604.112,94.035L598.424,94.035L598.424,87L604.112,82.822L605.552,56L608.216,56L608.216,83.922L619.952,83.922L619.952,94.035L608.216,94.035L608.216,167.687C608.216,175.749 608.732,181.868 609.764,186.045C610.796,190.223 612.416,192.311 614.624,192.311Z" style="fill:rgb(109,133,86);fill-rule:nonzero;"/>
                <path d="M632.408,83.922L632.408,200.886L628.304,200.886L628.304,83.922L632.408,83.922ZM630.392,40.61C631.304,40.61 632,41.453 632.48,43.138C632.96,44.824 633.2,47.132 633.2,50.064C633.2,53.142 632.96,55.523 632.48,57.209C632,58.895 631.304,59.737 630.392,59.737C629.48,59.737 628.784,58.895 628.304,57.209C627.824,55.523 627.584,53.142 627.584,50.064C627.584,47.132 627.824,44.824 628.304,43.138C628.784,41.453 629.48,40.61 630.392,40.61Z" style="fill:rgb(109,133,86);fill-rule:nonzero;"/>
                <path d="M658.616,81.943C662.936,81.943 666.152,85.131 668.264,91.507C670.376,97.883 671.432,108.106 671.432,122.177L671.432,200.886L668.336,200.886L667.616,181.099L667.4,181.099C666.488,185.496 665.444,189.343 664.268,192.641C663.092,195.939 661.676,198.504 660.02,200.336C658.364,202.168 656.36,203.084 654.008,203.084C651.56,203.084 649.448,201.802 647.672,199.237C645.896,196.672 644.528,192.971 643.568,188.134C642.608,183.297 642.128,177.361 642.128,170.326C642.128,158.6 643.688,149.696 646.808,143.613C649.928,137.53 654.464,134.122 660.416,133.39L667.4,132.29L667.4,124.156C667.4,112.576 666.644,104.405 665.132,99.641C663.62,94.878 661.4,92.496 658.472,92.496C656.504,92.496 654.608,93.266 652.784,94.805C650.96,96.344 649.136,98.506 647.312,101.29L646.016,91.177C647.84,88.539 649.82,86.34 651.956,84.581C654.092,82.822 656.312,81.943 658.616,81.943ZM660.92,142.624C656.072,143.356 652.448,145.958 650.048,150.428C647.648,154.899 646.448,161.531 646.448,170.326C646.448,177.508 647.18,183.004 648.644,186.815C650.108,190.626 652.136,192.531 654.728,192.531C658.76,192.531 661.868,189.05 664.052,182.088C666.236,175.126 667.352,165.489 667.4,153.177L667.4,141.744L660.92,142.624Z" style="fill:rgb(109,133,86);fill-rule:nonzero;"/>
            </g>
            <g transform="matrix(0.00286945,0,0,0.0211268,-46.0234,62.8415)">
                <path d="M346.183,166.742C346.183,176.592 345.62,184.864 344.494,191.558C343.368,198.253 341.819,203.332 339.848,206.794C337.878,210.257 335.643,211.989 333.144,211.989C331.631,211.989 330.25,211.642 329,210.95C327.751,210.257 326.616,209.372 325.596,208.295C324.575,207.218 323.66,205.986 322.851,204.601L322.851,191.443C324.188,193.751 325.745,195.752 327.522,197.445C329.299,199.138 331.226,199.984 333.303,199.984C335.238,199.984 336.936,198.792 338.397,196.406C339.857,194.021 341.001,190.404 341.828,185.556C342.655,180.708 343.068,174.745 343.068,167.665C343.068,161.048 342.725,155.661 342.039,151.506C341.353,147.35 340.297,143.695 338.872,140.54C337.446,137.385 335.625,134.192 333.408,130.96C331.825,128.498 330.408,125.958 329.159,123.342C327.909,120.726 326.845,117.648 325.965,114.108C325.085,110.568 324.417,106.375 323.959,101.527C323.502,96.679 323.273,90.946 323.273,84.328C323.273,75.248 323.801,67.63 324.856,61.474C325.912,55.318 327.346,50.624 329.159,47.392C330.971,44.161 333.021,42.545 335.309,42.545C337.174,42.545 338.925,43.276 340.561,44.738C342.197,46.2 343.755,48.393 345.233,51.317L344.23,62.859C342.752,60.089 341.256,58.012 339.743,56.626C338.229,55.241 336.716,54.549 335.203,54.549C333.479,54.549 331.956,55.665 330.637,57.896C329.317,60.128 328.279,63.437 327.522,67.823C326.766,72.209 326.387,77.634 326.387,84.098C326.387,91.023 326.739,96.64 327.443,100.95C328.147,105.259 329.176,108.875 330.531,111.8C331.886,114.724 333.514,117.648 335.414,120.572C337.666,123.804 339.593,127.305 341.194,131.076C342.796,134.846 344.027,139.54 344.89,145.157C345.752,150.775 346.183,157.97 346.183,166.742Z" style="fill:rgb(109,133,86);fill-rule:nonzero;"/>
                <path d="M376.958,148.043C376.958,157.739 376.686,166.473 376.14,174.245C375.595,182.016 374.785,188.711 373.712,194.328C372.638,199.946 371.319,204.294 369.753,207.372C368.187,210.45 366.383,211.989 364.342,211.989C362.406,211.989 360.664,210.488 359.116,207.487C357.567,204.486 356.257,200.177 355.183,194.559C354.11,188.942 353.283,182.209 352.702,174.36C352.122,166.511 351.831,157.739 351.831,148.043C351.831,134.808 352.341,123.458 353.362,113.993C354.383,104.528 355.843,97.256 357.743,92.177C359.644,87.099 361.914,84.559 364.553,84.559C367.263,84.559 369.533,87.214 371.363,92.524C373.193,97.833 374.583,105.22 375.533,114.685C376.483,124.15 376.958,135.269 376.958,148.043ZM354.946,148.043C354.946,158.508 355.289,167.704 355.975,175.63C356.661,183.555 357.699,189.711 359.09,194.098C360.48,198.484 362.248,200.677 364.395,200.677C366.577,200.677 368.363,198.484 369.753,194.098C371.143,189.711 372.172,183.555 372.841,175.63C373.509,167.704 373.844,158.508 373.844,148.043C373.844,137.886 373.527,128.882 372.894,121.034C372.26,113.185 371.257,107.029 369.885,102.566C368.512,98.102 366.717,95.871 364.5,95.871C361.333,95.871 358.949,100.488 357.348,109.722C355.746,118.956 354.946,131.73 354.946,148.043ZM362.389,32.849C362.846,36.081 363.427,39.851 364.131,44.161C364.835,48.47 365.591,52.702 366.401,56.857C367.21,61.013 367.932,64.629 368.565,67.707L368.565,69.785L366.453,69.785C365.82,67.322 365.134,64.591 364.395,61.59C363.656,58.589 362.934,55.472 362.23,52.24C361.527,49.008 360.876,45.892 360.277,42.891C359.679,39.89 359.186,37.158 358.799,34.696L358.799,32.849L362.389,32.849Z" style="fill:rgb(109,133,86);fill-rule:nonzero;"/>
                <path d="M397.176,84.559C400.379,84.559 402.824,88.137 404.514,95.294C406.203,102.45 407.047,113.8 407.047,129.344L407.047,209.68L404.091,209.68L404.091,130.268C404.091,118.417 403.475,109.722 402.244,104.182C401.012,98.641 399.217,95.871 396.859,95.871C393.762,95.871 391.449,99.795 389.918,107.644C388.387,115.493 387.621,127.19 387.621,142.734L387.621,209.68L384.613,209.68L384.613,86.868L387.041,86.868L387.463,108.106L387.674,108.106C388.202,103.489 388.906,99.411 389.786,95.871C390.666,92.331 391.721,89.561 392.953,87.56C394.185,85.56 395.592,84.559 397.176,84.559Z" style="fill:rgb(109,133,86);fill-rule:nonzero;"/>
                <path d="M419.083,86.868L419.083,209.68L416.074,209.68L416.074,86.868L419.083,86.868ZM417.605,41.39C418.274,41.39 418.784,42.275 419.136,44.045C419.488,45.815 419.664,48.239 419.664,51.317C419.664,54.549 419.488,57.05 419.136,58.82C418.784,60.589 418.274,61.474 417.605,61.474C416.936,61.474 416.426,60.589 416.074,58.82C415.722,57.05 415.546,54.549 415.546,51.317C415.546,48.239 415.722,45.815 416.074,44.045C416.426,42.275 416.936,41.39 417.605,41.39Z" style="fill:rgb(109,133,86);fill-rule:nonzero;"/>
                <path d="M438.298,84.79C441.465,84.79 443.823,88.137 445.372,94.832C446.92,101.527 447.694,112.261 447.694,127.036L447.694,209.68L445.424,209.68L444.896,188.904L444.738,188.904C444.069,193.521 443.304,197.56 442.442,201.023C441.58,204.486 440.541,207.179 439.327,209.103C438.113,211.027 436.644,211.989 434.92,211.989C433.125,211.989 431.576,210.642 430.274,207.949C428.972,205.255 427.969,201.369 427.265,196.291C426.561,191.212 426.21,184.979 426.21,177.592C426.21,165.28 427.353,155.93 429.641,149.544C431.928,143.157 435.254,139.579 439.618,138.809L444.738,137.655L444.738,129.113C444.738,116.955 444.184,108.375 443.075,103.374C441.967,98.372 440.339,95.871 438.192,95.871C436.75,95.871 435.359,96.679 434.022,98.295C432.685,99.911 431.348,102.181 430.01,105.105L429.06,94.486C430.397,91.716 431.849,89.407 433.415,87.56C434.981,85.714 436.609,84.79 438.298,84.79ZM439.987,148.505C436.433,149.274 433.776,152.006 432.016,156.7C430.257,161.394 429.377,168.358 429.377,177.592C429.377,185.133 429.913,190.904 430.987,194.906C432.06,198.907 433.547,200.908 435.447,200.908C438.404,200.908 440.682,197.253 442.283,189.942C443.885,182.632 444.703,172.513 444.738,159.586L444.738,147.581L439.987,148.505Z" style="fill:rgb(109,133,86);fill-rule:nonzero;"/>
                <path d="M487.074,54.549C484.751,54.549 482.666,56.28 480.819,59.743C478.971,63.206 477.414,68.13 476.147,74.517C474.88,80.904 473.912,88.522 473.244,97.371C472.575,106.221 472.241,116.032 472.241,126.805C472.241,141.579 472.777,154.468 473.851,165.472C474.924,176.476 476.517,184.979 478.628,190.981C480.74,196.983 483.379,199.984 486.546,199.984C488.411,199.984 490.109,199.369 491.64,198.137C493.171,196.906 494.605,195.29 495.943,193.29L495.943,205.063C494.64,207.218 493.215,208.911 491.667,210.142C490.118,211.373 488.306,211.989 486.23,211.989C482.429,211.989 479.253,208.449 476.701,201.369C474.15,194.29 472.232,184.363 470.947,171.59C469.663,158.816 469.021,143.888 469.021,126.805C469.021,114.493 469.425,103.22 470.235,92.985C471.044,82.751 472.223,73.863 473.772,66.322C475.32,58.781 477.212,52.933 479.446,48.778C481.681,44.622 484.241,42.545 487.127,42.545C488.957,42.545 490.708,43.314 492.379,44.853C494.051,46.392 495.591,48.624 496.998,51.548L495.784,63.321C494.447,60.397 493.057,58.204 491.614,56.742C490.171,55.28 488.658,54.549 487.074,54.549Z" style="fill:rgb(109,133,86);fill-rule:nonzero;"/>
                <path d="M513.204,84.79C516.371,84.79 518.729,88.137 520.278,94.832C521.826,101.527 522.6,112.261 522.6,127.036L522.6,209.68L520.331,209.68L519.803,188.904L519.644,188.904C518.976,193.521 518.21,197.56 517.348,201.023C516.486,204.486 515.448,207.179 514.234,209.103C513.019,211.027 511.55,211.989 509.826,211.989C508.031,211.989 506.483,210.642 505.18,207.949C503.878,205.255 502.875,201.369 502.171,196.291C501.468,191.212 501.116,184.979 501.116,177.592C501.116,165.28 502.259,155.93 504.547,149.544C506.834,143.157 510.16,139.579 514.524,138.809L519.644,137.655L519.644,129.113C519.644,116.955 519.09,108.375 517.982,103.374C516.873,98.372 515.245,95.871 513.099,95.871C511.656,95.871 510.266,96.679 508.928,98.295C507.591,99.911 506.254,102.181 504.916,105.105L503.966,94.486C505.304,91.716 506.755,89.407 508.321,87.56C509.887,85.714 511.515,84.79 513.204,84.79ZM514.893,148.505C511.339,149.274 508.682,152.006 506.922,156.7C505.163,161.394 504.283,168.358 504.283,177.592C504.283,185.133 504.82,190.904 505.893,194.906C506.966,198.907 508.453,200.908 510.354,200.908C513.31,200.908 515.588,197.253 517.19,189.942C518.791,182.632 519.609,172.513 519.644,159.586L519.644,147.581L514.893,148.505Z" style="fill:rgb(109,133,86);fill-rule:nonzero;"/>
                <path d="M543.135,84.79C543.804,84.79 544.464,84.944 545.115,85.252C545.766,85.56 546.373,86.021 546.936,86.637L546.461,98.872C545.898,98.256 545.335,97.756 544.771,97.371C544.208,96.987 543.61,96.794 542.977,96.794C541.675,96.794 540.513,97.872 539.493,100.026C538.472,102.181 537.592,105.259 536.853,109.26C536.114,113.262 535.551,118.033 535.164,123.573C534.777,129.113 534.583,135.346 534.583,142.272L534.583,209.68L531.574,209.68L531.574,86.868L534.108,86.868L534.425,109.722L534.583,109.722C535.076,105.105 535.718,100.911 536.51,97.141C537.302,93.37 538.252,90.369 539.361,88.137C540.469,85.906 541.727,84.79 543.135,84.79Z" style="fill:rgb(109,133,86);fill-rule:nonzero;"/>
                <path d="M562.561,211.989C559.851,211.989 557.529,209.488 555.593,204.486C553.657,199.484 552.188,192.289 551.185,182.901C550.182,173.514 549.681,162.202 549.681,148.966C549.681,135.115 550.253,123.381 551.396,113.762C552.54,104.143 554.115,96.871 556.121,91.946C558.127,87.022 560.485,84.559 563.194,84.559C564.532,84.559 565.799,85.098 566.995,86.175C568.192,87.253 569.247,88.715 570.162,90.561L569.318,101.873C568.368,100.18 567.347,98.834 566.256,97.833C565.165,96.833 564.127,96.333 563.142,96.333C560.925,96.333 559.051,98.449 557.52,102.681C555.989,106.913 554.819,112.954 554.009,120.803C553.2,128.652 552.795,137.963 552.795,148.736C552.795,158.893 553.147,167.858 553.851,175.63C554.555,183.402 555.619,189.442 557.045,193.751C558.47,198.061 560.309,200.215 562.561,200.215C563.969,200.215 565.28,199.6 566.494,198.368C567.708,197.137 568.808,195.598 569.793,193.751L569.793,205.525C568.878,207.372 567.831,208.911 566.652,210.142C565.473,211.373 564.109,211.989 562.561,211.989Z" style="fill:rgb(109,133,86);fill-rule:nonzero;"/>
                <path d="M587.107,84.559C589.5,84.559 591.506,86.983 593.125,91.831C594.744,96.679 595.958,103.335 596.768,111.8C597.577,120.264 597.982,129.96 597.982,140.887L597.982,149.89L577.922,149.89C577.958,166.203 578.837,178.708 580.562,187.403C582.286,196.098 584.767,200.446 588.005,200.446C589.729,200.446 591.242,199.792 592.545,198.484C593.847,197.176 595.272,195.059 596.82,192.135L596.82,204.14C595.448,206.756 594.067,208.718 592.677,210.026C591.286,211.334 589.694,211.989 587.899,211.989C585.084,211.989 582.7,209.449 580.746,204.37C578.793,199.292 577.315,192.02 576.312,182.555C575.309,173.09 574.808,161.971 574.808,149.197C574.808,136.731 575.292,125.612 576.259,115.839C577.227,106.067 578.626,98.41 580.456,92.87C582.286,87.329 584.503,84.559 587.107,84.559ZM587.055,95.64C584.486,95.64 582.409,99.372 580.826,106.836C579.242,114.3 578.309,125.035 578.028,139.04L594.867,139.04C594.867,130.421 594.586,122.88 594.023,116.417C593.46,109.953 592.606,104.874 591.462,101.18C590.319,97.487 588.849,95.64 587.055,95.64Z" style="fill:rgb(109,133,86);fill-rule:nonzero;"/>
                <path d="M617.144,84.79C617.812,84.79 618.472,84.944 619.123,85.252C619.774,85.56 620.381,86.021 620.945,86.637L620.469,98.872C619.906,98.256 619.343,97.756 618.78,97.371C618.217,96.987 617.619,96.794 616.985,96.794C615.683,96.794 614.522,97.872 613.501,100.026C612.481,102.181 611.601,105.259 610.862,109.26C610.123,113.262 609.56,118.033 609.173,123.573C608.786,129.113 608.592,135.346 608.592,142.272L608.592,209.68L605.583,209.68L605.583,86.868L608.117,86.868L608.434,109.722L608.592,109.722C609.085,105.105 609.727,100.911 610.519,97.141C611.311,93.37 612.261,90.369 613.369,88.137C614.478,85.906 615.736,84.79 617.144,84.79Z" style="fill:rgb(109,133,86);fill-rule:nonzero;"/>
                <path d="M635.989,84.559C638.382,84.559 640.388,86.983 642.007,91.831C643.626,96.679 644.84,103.335 645.649,111.8C646.459,120.264 646.863,129.96 646.863,140.887L646.863,149.89L626.804,149.89C626.839,166.203 627.719,178.708 629.443,187.403C631.168,196.098 633.649,200.446 636.887,200.446C638.611,200.446 640.124,199.792 641.426,198.484C642.728,197.176 644.154,195.059 645.702,192.135L645.702,204.14C644.33,206.756 642.948,208.718 641.558,210.026C640.168,211.334 638.576,211.989 636.781,211.989C633.966,211.989 631.581,209.449 629.628,204.37C627.675,199.292 626.197,192.02 625.194,182.555C624.191,173.09 623.69,161.971 623.69,149.197C623.69,136.731 624.173,125.612 625.141,115.839C626.109,106.067 627.508,98.41 629.338,92.87C631.168,87.329 633.385,84.559 635.989,84.559ZM635.936,95.64C633.367,95.64 631.291,99.372 629.707,106.836C628.124,114.3 627.191,125.035 626.91,139.04L643.749,139.04C643.749,130.421 643.467,122.88 642.904,116.417C642.341,109.953 641.488,104.874 640.344,101.18C639.2,97.487 637.731,95.64 635.936,95.64Z" style="fill:rgb(109,133,86);fill-rule:nonzero;"/>
                <path d="M667.029,84.559C670.231,84.559 672.677,88.137 674.366,95.294C676.055,102.45 676.9,113.8 676.9,129.344L676.9,209.68L673.944,209.68L673.944,130.268C673.944,118.417 673.328,109.722 672.096,104.182C670.864,98.641 669.07,95.871 666.712,95.871C663.615,95.871 661.301,99.795 659.77,107.644C658.239,115.493 657.474,127.19 657.474,142.734L657.474,209.68L654.465,209.68L654.465,86.868L656.893,86.868L657.316,108.106L657.527,108.106C658.055,103.489 658.758,99.411 659.638,95.871C660.518,92.331 661.574,89.561 662.805,87.56C664.037,85.56 665.445,84.559 667.029,84.559Z" style="fill:rgb(109,133,86);fill-rule:nonzero;"/>
                <path d="M681.334,86.868L684.501,86.868L691.205,163.048C691.593,167.665 691.944,171.898 692.261,175.745C692.578,179.593 692.859,183.171 693.106,186.48C693.352,189.788 693.546,192.828 693.686,195.598L693.845,195.598C694.091,191.905 694.434,187.288 694.874,181.747C695.314,176.207 695.798,170.128 696.326,163.51L702.872,86.868L706.092,86.868L693.423,231.38C692.824,238.613 692.138,244.769 691.364,249.848C690.59,254.927 689.675,258.774 688.619,261.39C687.563,264.007 686.279,265.315 684.765,265.315C684.097,265.315 683.49,265.122 682.944,264.738C682.399,264.353 681.897,263.853 681.44,263.237L681.44,252.156C681.862,252.772 682.319,253.272 682.812,253.657C683.305,254.042 683.833,254.234 684.396,254.234C685.416,254.234 686.287,253.349 687.009,251.579C687.73,249.809 688.372,247.116 688.936,243.5C689.499,239.883 690.026,235.304 690.519,229.764L692.314,209.218L681.334,86.868Z" style="fill:rgb(109,133,86);fill-rule:nonzero;"/>
            </g>
        </g>
    </g>
</svg>
