<svg id="Capa_1" data-name="Capa 1" xmlns="http://www.w3.org/2000/svg" viewBox="0 0 284 284"><defs><style>.cls-1{fill:#6D8556;}.cls-2{fill:#fff;}</style></defs><circle class="cls-1" cx="142" cy="142" r="142"/><path class="cls-2" d="M148.19,284.73a89.9,89.9,0,0,1-37.86-12.5,96.06,96.06,0,0,1-45.21-66.31A90.1,90.1,0,0,1,64.07,185a88.19,88.19,0,0,1,1.33-10.38A74.38,74.38,0,0,1,68,164.46a76,76,0,0,1,23.29-34.18,85.56,85.56,0,0,1,17.1-11.15,87.39,87.39,0,0,1,19-6.84,88.61,88.61,0,0,1,39.88-.26,71,71,0,0,1,18.94,7.4,68.51,68.51,0,0,1,16.13,12.81,64.76,64.76,0,0,1,11.6,17.43,62.44,62.44,0,0,1,3.59,10,66,66,0,0,1,1.82,10.57,60.65,60.65,0,0,1,0,10.78c-.1.9-.16,1.8-.28,2.69l-.41,2.68c-.36,1.79-.83,3.6-1.25,5.41A53.87,53.87,0,0,1,207,211.44a56.08,56.08,0,0,1-17.43,13.92,57.36,57.36,0,0,1-32.8,5.89l-2.79-.41a23.73,23.73,0,0,1-2.8-.53,44.86,44.86,0,0,1-5.6-1.62c-.92-.34-1.85-.65-2.75-1l-2.64-1.27-1.31-.64c-.43-.24-.84-.5-1.26-.75l-2.5-1.53a47.2,47.2,0,0,1-8.83-7.68,48,48,0,0,1-6.68-9.6,45.78,45.78,0,0,1-2.36-5.37c-.32-.93-.66-1.85-.95-2.78l-.7-2.85-.33-1.43-.22-1.46-.4-2.91c-.06-1-.09-2-.13-2.93a22,22,0,0,1,0-2.93l.19-2.92c.06-1,.3-1.93.44-2.89s.3-1.9.57-2.87l.83-2.92a38.83,38.83,0,0,1,5.58-10.65,38,38,0,0,1,8.61-8.2c.83-.54,1.62-1.14,2.49-1.6l2.6-1.38a41.75,41.75,0,0,1,5.48-2.09,36.15,36.15,0,0,1,11.48-1.58,22.91,22.91,0,0,1,2.87.17,22.42,22.42,0,0,1,2.85.36c.94.19,1.88.36,2.81.56l2.83.86a31.38,31.38,0,0,1,10.08,5.92,29.91,29.91,0,0,1,7,9.11,28.61,28.61,0,0,1,2.9,11c0,.94,0,1.89,0,2.82s-.18,1.87-.27,2.8-.37,1.83-.56,2.74-.56,1.82-.88,2.7a22.65,22.65,0,0,1-6.55,9,22.3,22.3,0,0,1-9.69,4.5,21.67,21.67,0,0,1-10.27-.56l.31-1.47a20.57,20.57,0,0,0,9.07-1.19,18.62,18.62,0,0,0,7.2-4.9,16.86,16.86,0,0,0,3.86-7.32c.13-.68.25-1.34.33-2s.12-1.4.15-2.09l-.06-2.08-.28-2A21.1,21.1,0,0,0,168,162.05a20.7,20.7,0,0,0-7.07-3.19l-1.9-.36-2-.2a13.51,13.51,0,0,0-2-.07,13.37,13.37,0,0,0-2,.06,25.61,25.61,0,0,0-7.67,1.73,29,29,0,0,0-3.52,1.66l-1.63,1c-.55.34-1,.79-1.54,1.16a24.36,24.36,0,0,0-5.12,5.57,25.65,25.65,0,0,0-3,6.76l-.4,1.81c-.15.6-.17,1.3-.26,1.93a18.41,18.41,0,0,0-.2,1.95l0,2a12.54,12.54,0,0,0,.08,1.94l.16,1.94.36,1.91.16,1,.28.93.53,1.87c.22.61.49,1.21.72,1.81a33.12,33.12,0,0,0,1.65,3.52,31.35,31.35,0,0,0,4.6,6.26,32.45,32.45,0,0,0,2.8,2.7,14.78,14.78,0,0,0,1.53,1.21c.53.38,1,.8,1.57,1.15l1.67,1,.84.51.88.41,1.76.85c.6.26,1.22.46,1.83.7a27.88,27.88,0,0,0,3.74,1.14,13.74,13.74,0,0,0,2,.4l2,.33a45.09,45.09,0,0,0,8.21.38,42.6,42.6,0,0,0,29.28-13.62,40.59,40.59,0,0,0,8.4-14.29c.37-1.35.8-2.67,1.16-4l.46-2.13c.15-.71.23-1.43.36-2.14a58.88,58.88,0,0,0,.66-8.71,56.43,56.43,0,0,0-2.92-17.38A56.66,56.66,0,0,0,166,116.92a70.41,70.41,0,0,0-37.42.06A68.07,68.07,0,0,0,97,136.29,71.91,71.91,0,0,0,80,168a94.9,94.9,0,0,0-2.51,17.85,96.42,96.42,0,0,0,.81,18.05A93.6,93.6,0,0,0,90.46,238a99.75,99.75,0,0,0,24.4,27.63,109.91,109.91,0,0,0,33.63,17.69Z"/><path class="cls-2" d="M173.57,61.06a47.58,47.58,0,0,1-7.91,25.25,33.18,33.18,0,0,1-10,9.58,11.3,11.3,0,0,1-1.56.87l-1.6.8a14,14,0,0,1-1.66.67l-1.71.61c-1.15.33-2.35.55-3.53.83s-2.41.26-3.63.39A30.43,30.43,0,0,1,127.74,97a35.47,35.47,0,0,1-11.53-9,44,44,0,0,1-10-26.95,45.8,45.8,0,0,1,8.46-28.18,30.26,30.26,0,0,1,2.47-3A26.67,26.67,0,0,1,120,27.17a34.75,34.75,0,0,1,6.51-4.5A31.42,31.42,0,0,1,142,19.06,29.23,29.23,0,0,1,157,23.79a32.87,32.87,0,0,1,10.23,10.8,44.59,44.59,0,0,1,5.1,13.06A55.5,55.5,0,0,1,173.57,61.06Zm-1.2,0a33,33,0,0,0-2.9-12.48,30.61,30.61,0,0,0-7.31-10,29.75,29.75,0,0,0-9.82-6A26.12,26.12,0,0,0,142,31.06c-6.83.35-13.19,3.78-18,9.24a33.18,33.18,0,0,0-8.14,20.76,35.23,35.23,0,0,0,6.61,22A28.26,28.26,0,0,0,131,90.8a24.15,24.15,0,0,0,11,3.26,26.26,26.26,0,0,0,11.61-2.16,30.16,30.16,0,0,0,10.08-7.17,32.16,32.16,0,0,0,6.63-10.92A35.23,35.23,0,0,0,172.37,61.06Z"/><polygon class="cls-2" points="170.61 274.74 165.62 273.99 165.99 272.4 170.8 273.66 170.61 274.74"/><polygon class="cls-2" points="158.7 272.51 153.82 271.12 154.77 268.48 159.39 270.26 158.7 272.51"/><polygon class="cls-2" points="147.1 268.76 142.41 266.79 144.15 263.32 148.49 265.62 147.1 268.76"/><polygon class="cls-2" points="135.99 263.63 131.54 261.09 134.28 256.96 138.29 259.75 135.99 263.63"/><polygon class="cls-2" points="125.52 257.15 121.41 254.04 125.29 249.52 128.93 252.74 125.52 257.15"/><polygon class="cls-2" points="115.92 249.33 112.21 245.72 117.31 241.1 120.5 244.72 115.92 249.33"/><polygon class="cls-2" points="107.34 240.31 104.14 236.2 110.49 231.81 113.19 235.77 107.34 240.31"/><polygon class="cls-2" points="100.04 230.14 97.41 225.6 104.98 221.79 107.1 226.05 100.04 230.14"/><polygon class="cls-2" points="94.16 218.99 92.17 214.1 100.98 211.15 102.44 215.64 94.16 218.99"/><polygon class="cls-2" points="89.92 206.91 88.71 201.75 99.02 200.14 99.64 204.81 89.92 206.91"/><path class="cls-2" d="M87.56,194.38c-.14-1.77-.27-3.55-.36-5.33l11.34-.11c0,1.55.06,3.1,0,4.66Z"/><path class="cls-2" d="M87.4,181.55c.21-1.78.43-3.55.68-5.32l11.16,1.61c-.12,1.54-.26,3.07-.42,4.61Z"/><path class="cls-2" d="M89.77,168.89c.55-1.7,1.11-3.41,1.7-5.09l9.73,3.1c-.32,1.52-.65,3-1,4.53Z"/><path class="cls-2" d="M94.54,157c.87-1.56,1.78-3.1,2.67-4.63l7.49,4c-.55,1.48-1.09,2.94-1.65,4.38Z"/><path class="cls-2" d="M101.61,146.32c1.18-1.33,2.39-2.62,3.57-3.9l4.65,3.7c-.79,1.4-1.55,2.8-2.34,4.16Z"/><path class="cls-2" d="M110.74,137.64c1.42-1,2.88-1.95,4.3-2.9l1.54,1.78c-1,1.33-2,2.67-3,3.93Z"/></svg>