<svg id="Capa_1" data-name="Capa 1" xmlns="http://www.w3.org/2000/svg" viewBox="0 0 285 285"><defs><style>.cls-1{fill:#1d71b8;}.cls-2{fill:none;stroke:#00679a;stroke-miterlimit:10;}.cls-3{fill:#fff;}</style></defs><circle class="cls-1" cx="142.5" cy="142.5" r="142"/><circle class="cls-2" cx="142.5" cy="142.5" r="142"/><path class="cls-3" d="M144,284.34a95.79,95.79,0,0,1-65-41.77,96.79,96.79,0,0,1-9.3-17.79,95.7,95.7,0,0,1-5.32-19.41,89.76,89.76,0,0,1-1-20.12,84.27,84.27,0,0,1,1.19-10,80.79,80.79,0,0,1,2.34-9.84,73.29,73.29,0,0,1,8.56-18.27,77.41,77.41,0,0,1,13-15.24,80.48,80.48,0,0,1,16.37-11.32,83.6,83.6,0,0,1,9-4.1,89.9,89.9,0,0,1,9.46-2.93,83.25,83.25,0,0,1,39.23-.21A68.47,68.47,0,0,1,181,120.85a64,64,0,0,1,15.34,12.8,62.18,62.18,0,0,1,15.49,36.76,59.27,59.27,0,0,1-.19,10.23c-.1.85-.17,1.7-.3,2.54l-.43,2.53c-.36,1.69-.81,3.37-1.22,5a50,50,0,0,1-9.86,18.2A53.4,53.4,0,0,1,153,227l-2.59-.4a19.52,19.52,0,0,1-2.58-.49,39.27,39.27,0,0,1-5.1-1.51c-.83-.31-1.68-.59-2.5-.93l-2.4-1.15-1.2-.58c-.39-.22-.77-.46-1.15-.69l-2.28-1.38a42.5,42.5,0,0,1-8-7c-9.67-10.49-13.46-26.11-9.17-39.83a35.49,35.49,0,0,1,4.91-9.61,34.11,34.11,0,0,1,7.66-7.51c.75-.5,1.45-1.05,2.24-1.48l2.34-1.29a37.64,37.64,0,0,1,5-2,33.85,33.85,0,0,1,10.46-1.62,36.75,36.75,0,0,1,5.27.39c.86.15,1.73.29,2.59.46l2.58.73a28.36,28.36,0,0,1,9.28,5.18,27.6,27.6,0,0,1,6.62,8.2,26.48,26.48,0,0,1,2.94,10.05,24.9,24.9,0,0,1-1.29,10.31,21.11,21.11,0,0,1-5.85,8.5A20.95,20.95,0,0,1,151.77,198l.14-.69a21,21,0,0,0,9.39-.72,19.45,19.45,0,0,0,7.88-4.78,18.4,18.4,0,0,0,4.56-7.77,22.54,22.54,0,0,0,.56-9,23.28,23.28,0,0,0-16.78-19l-2.14-.49-2.23-.3a31.18,31.18,0,0,0-4.46-.16,28,28,0,0,0-8.7,1.69,32.36,32.36,0,0,0-4,1.78l-1.89,1.14c-.63.37-1.19.86-1.79,1.28a28.11,28.11,0,0,0-6.06,6.26,28.87,28.87,0,0,0-3.71,7.81l-.52,2.1c-.18.7-.22,1.46-.34,2.19s-.25,1.46-.25,2.2l-.09,2.21a14.83,14.83,0,0,0,0,2.21l.15,2.2.36,2.18.18,1.09.29,1.07.57,2.13c.24.7.52,1.38.78,2.07a35.5,35.5,0,0,0,1.84,4,36.06,36.06,0,0,0,5.18,7.14,35.46,35.46,0,0,0,3.17,3.08,16.24,16.24,0,0,0,1.72,1.38c.6.43,1.17.91,1.79,1.31l1.89,1.15.94.57,1,.48,2,1c.68.29,1.39.52,2.08.78a39.74,39.74,0,0,0,8.69,2,49.53,49.53,0,0,0,9,.35,46.2,46.2,0,0,0,31.87-15.34,44.25,44.25,0,0,0,8.92-15.72c.39-1.47.83-2.92,1.19-4.41l.44-2.28c.14-.76.22-1.53.34-2.29a59.62,59.62,0,0,0,.48-9.26,58.57,58.57,0,0,0-12.81-34.57,60.26,60.26,0,0,0-31.38-20.49,75.82,75.82,0,0,0-19-2.42c-1.6,0-3.21,0-4.81.17s-3.2.28-4.79.48-3.17.51-4.75.77-3.14.64-4.68,1.1A72.66,72.66,0,0,0,72.53,167a91.29,91.29,0,0,0-2.91,18.58,95.38,95.38,0,0,0,.89,18.8,88.8,88.8,0,0,0,4.75,18.25,93.31,93.31,0,0,0,8.3,17,98,98,0,0,0,25.82,27.72,104,104,0,0,0,34.76,16.3Z" transform="translate(-0.33 0.5)"/><path class="cls-3" d="M178.51,61.06A43.87,43.87,0,0,1,170.44,86a32.57,32.57,0,0,1-10,9.08,28.09,28.09,0,0,1-13.26,3.75,29.17,29.17,0,0,1-13.58-3.13,33.9,33.9,0,0,1-10.87-8.74,42.1,42.1,0,0,1-9.32-25.88,43.13,43.13,0,0,1,8.39-26.63A33.72,33.72,0,0,1,132.86,25a12.8,12.8,0,0,1,1.67-.8l1.72-.72a13.47,13.47,0,0,1,1.76-.59c.6-.18,1.19-.35,1.79-.51,1.21-.28,2.45-.43,3.68-.64s2.48-.12,3.71-.17a28.37,28.37,0,0,1,14,4.07,32.65,32.65,0,0,1,10.15,9.79,41.06,41.06,0,0,1,5.55,12.43A48.91,48.91,0,0,1,178.51,61.06Zm-.7,0a36.15,36.15,0,0,0-2.57-12.67,33.56,33.56,0,0,0-6.84-10.63c-5.77-6-13.57-9.44-21.21-9.2s-14.9,4.14-20,10.19a33.82,33.82,0,0,0-6,10.35,38.69,38.69,0,0,0-2.25,12,37.06,37.06,0,0,0,7.28,23,29.58,29.58,0,0,0,9.17,8,25.4,25.4,0,0,0,11.72,3.2,26.62,26.62,0,0,0,12-2.58,30.82,30.82,0,0,0,10.06-7.67,34.43,34.43,0,0,0,6.45-11.17,37.36,37.36,0,0,0,1.59-6.33c.12-1.08.3-2.16.36-3.24Z" transform="translate(-0.33 0.5)"/><polygon class="cls-3" points="159.02 274.69 156.02 274.39 156.13 273.85 159.02 274.69"/><polygon class="cls-3" points="151.03 273.64 148.06 273.04 148.57 271.3 151.38 272.31 151.03 273.64"/><polygon class="cls-3" points="143.14 271.81 140.23 270.94 141.25 268.26 143.97 269.45 143.14 271.81"/><polygon class="cls-3" points="135.41 269.28 132.58 268.14 134.21 264.74 136.82 266.1 135.41 269.28"/><polygon class="cls-3" points="127.92 266.03 125.18 264.66 127.46 260.74 129.95 262.3 127.92 266.03"/><polygon class="cls-3" points="120.71 262.15 118.1 260.52 121.05 256.28 123.41 258 120.71 262.15"/><polygon class="cls-3" points="113.86 257.62 111.38 255.78 115.02 251.37 117.23 253.26 113.86 257.62"/><polygon class="cls-3" points="107.39 252.51 105.09 250.44 109.39 246.03 111.45 248.07 107.39 252.51"/><polygon class="cls-3" points="101.41 246.82 99.3 244.54 104.21 240.29 106.1 242.48 101.41 246.82"/><polygon class="cls-3" points="95.95 240.59 94.05 238.12 99.52 234.17 101.22 236.5 95.95 240.59"/><polygon class="cls-3" points="91.09 233.86 89.42 231.23 95.37 227.69 96.86 230.16 91.09 233.86"/><polygon class="cls-3" points="86.88 226.69 85.48 223.9 91.78 220.9 93.05 223.49 86.88 226.69"/><polygon class="cls-3" points="83.38 219.13 82.27 216.2 88.82 213.83 89.86 216.51 83.38 219.13"/><polygon class="cls-3" points="80.69 211.15 79.96 208.11 86.67 206.57 87.39 209.36 80.69 211.15"/><polygon class="cls-3" points="79 203 78.57 199.91 85.23 199.03 85.69 201.88 79 203"/><polygon class="cls-3" points="78.12 194.73 78.01 191.61 84.46 191.39 84.66 194.26 78.12 194.73"/><polygon class="cls-3" points="78.09 186.41 78.31 183.3 84.39 183.7 84.33 186.58 78.09 186.41"/><polygon class="cls-3" points="78.95 178.15 79.52 175.09 85.05 176.04 84.72 178.9 78.95 178.15"/><polygon class="cls-3" points="80.74 170.05 81.64 167.07 86.49 168.47 85.86 171.29 80.74 170.05"/><polygon class="cls-3" points="83.42 162.21 84.68 159.38 88.73 161.07 87.81 163.82 83.42 162.21"/><polygon class="cls-3" points="87.06 154.81 88.65 152.16 91.8 153.94 90.55 156.58 87.06 154.81"/><polygon class="cls-3" points="91.6 147.96 93.53 145.56 95.66 147.16 94.11 149.65 91.6 147.96"/><polygon class="cls-3" points="96.98 141.81 99.2 139.72 100.33 140.8 98.49 143.13 96.98 141.81"/><polygon class="cls-3" points="103.11 136.51 105.57 134.76 105.73 134.95 103.62 137.08 103.11 136.51"/></svg>