<svg id="Capa_1" data-name="Capa 1" xmlns="http://www.w3.org/2000/svg" viewBox="0 0 1186.23 284"><defs><style>.cls-1{fill:#2e4093;}.cls-2{fill:#fff;}.cls-3{font-size:160px;letter-spacing:0em;}.cls-3,.cls-4{fill:#2e4192;stroke:#2e4192;stroke-miterlimit:10;font-family:Microsoft-Yi-Baiti, Microsoft Yi Baiti;font-style:italic;}.cls-4{font-size:100px;letter-spacing:0.01em;}</style></defs><circle class="cls-1" cx="142" cy="142" r="142"/><path class="cls-2" d="M148.24,284.49A92.36,92.36,0,0,1,111.1,271.1c-1.4-.92-2.82-1.8-4.19-2.77s-2.74-1.93-4-3a95.65,95.65,0,0,1-7.59-6.64,93.68,93.68,0,0,1-13-15.51,98.89,98.89,0,0,1-9.52-18,94.15,94.15,0,0,1-5.45-19.66,90.58,90.58,0,0,1-1-20.41A88.44,88.44,0,0,1,67.55,175,76.39,76.39,0,0,1,70,165a74.56,74.56,0,0,1,8.86-18.48,78.16,78.16,0,0,1,13.38-15.28A81.66,81.66,0,0,1,108.88,120a85.44,85.44,0,0,1,9.14-4,85.36,85.36,0,0,1,49-3.15,68.81,68.81,0,0,1,18.58,7.5,66.71,66.71,0,0,1,15.65,12.79,64.35,64.35,0,0,1,11.06,17.18,62,62,0,0,1,3.35,9.78,65.79,65.79,0,0,1,1.65,10.27,59.69,59.69,0,0,1-.12,10.44c-.11.86-.17,1.73-.31,2.59l-.41,2.59c-.36,1.72-.82,3.45-1.23,5.18A51.28,51.28,0,0,1,205.2,209.9a53.7,53.7,0,0,1-16.75,13.21,55.16,55.16,0,0,1-31.35,5.5l-2.67-.4a21.11,21.11,0,0,1-2.66-.51,41.12,41.12,0,0,1-5.3-1.54c-.86-.32-1.74-.61-2.59-1l-2.49-1.2-1.24-.61c-.41-.22-.8-.47-1.19-.71l-2.36-1.44a43.6,43.6,0,0,1-16.92-21.35c-.3-.87-.63-1.73-.91-2.61l-.67-2.69-.33-1.35-.2-1.37-.4-2.74c-.06-.92-.09-1.85-.13-2.77a21.18,21.18,0,0,1,0-2.76l.17-2.77a27.44,27.44,0,0,1,.41-2.72c.17-.91.26-1.81.52-2.72l.76-2.73a36.93,36.93,0,0,1,5.16-10,36,36,0,0,1,8-7.77,27.37,27.37,0,0,1,2.33-1.52l2.44-1.33a39.88,39.88,0,0,1,5.16-2,34.72,34.72,0,0,1,10.83-1.61,22.75,22.75,0,0,1,2.74.12,20.5,20.5,0,0,1,2.7.32c.9.16,1.79.31,2.68.49l2.67.78a29.23,29.23,0,0,1,9.58,5.46,28.46,28.46,0,0,1,6.78,8.54,27.41,27.41,0,0,1,2.92,10.4,25.63,25.63,0,0,1-1.44,10.59,21.23,21.23,0,0,1-25.45,13l.21-1a20.67,20.67,0,0,0,9.27-.89,19.34,19.34,0,0,0,7.61-4.84,17.83,17.83,0,0,0,4.31-7.59,21.85,21.85,0,0,0,.4-8.71,22.36,22.36,0,0,0-16.33-18l-2.06-.45-2.14-.26a14,14,0,0,0-2.15-.13,15.27,15.27,0,0,0-2.14,0,26.76,26.76,0,0,0-8.32,1.71,29.5,29.5,0,0,0-3.84,1.74L139,160.86c-.61.35-1.13.83-1.7,1.23a26.37,26.37,0,0,0-5.71,6,27.66,27.66,0,0,0-3.47,7.43l-.47,2c-.17.66-.19,1.4-.3,2.09s-.24,1.4-.24,2.11l-.06,2.11a12.38,12.38,0,0,0,.07,2.11l.15,2.11.36,2.08.18,1,.28,1,.56,2c.24.67.51,1.32.76,2A35.81,35.81,0,0,0,131.2,200a34.64,34.64,0,0,0,5,6.82,36,36,0,0,0,6.39,5.49l1.81,1.1.91.54,1,.45,1.91.92c.65.28,1.32.5,2,.75a37.21,37.21,0,0,0,8.34,2,47.09,47.09,0,0,0,8.72.36,44.92,44.92,0,0,0,30.89-14.7,43,43,0,0,0,8.74-15.17c.38-1.43.82-2.83,1.18-4.28l.45-2.22c.14-.74.22-1.49.34-2.24a59.45,59.45,0,0,0,.54-9.05,57.61,57.61,0,0,0-12.23-34.11,58.69,58.69,0,0,0-30.88-20.52,73.26,73.26,0,0,0-37.82.07A71.32,71.32,0,0,0,96,135.29a72.37,72.37,0,0,0-18,32.09,92.76,92.76,0,0,0-2.75,18.3,94.8,94.8,0,0,0,.86,18.52,91.14,91.14,0,0,0,4.61,18A92.18,92.18,0,0,0,88.81,239a100.6,100.6,0,0,0,11.27,15c2.11,2.33,4.37,4.52,6.7,6.65,1.15,1.08,2.39,2.06,3.58,3.11s2.49,1.94,3.73,2.93a106.53,106.53,0,0,0,34.35,16.8Z"/><path class="cls-2" d="M173.47,61.06a49.29,49.29,0,0,1-2.14,13.09c-.28,1.07-.7,2.1-1.09,3.15a25.25,25.25,0,0,1-1.34,3.07c-.25.49-.45,1-.73,1.51l-.84,1.46a24.57,24.57,0,0,1-1.84,2.84,32.94,32.94,0,0,1-10,9.38,10.91,10.91,0,0,1-1.54.84l-1.59.77a12.16,12.16,0,0,1-1.64.65l-1.69.58c-1.14.33-2.31.53-3.48.8s-2.37.24-3.57.36a30.07,30.07,0,0,1-14-3.08,35,35,0,0,1-11.28-8.88A43.29,43.29,0,0,1,107,61.06a44.74,44.74,0,0,1,8.43-27.56A34.71,34.71,0,0,1,127,23.6a13.36,13.36,0,0,1,1.75-.83l1.8-.76a16.68,16.68,0,0,1,1.85-.61c.63-.19,1.26-.37,1.89-.53,1.27-.29,2.57-.44,3.86-.65s2.6-.12,3.9-.16a28.88,28.88,0,0,1,14.57,4.47,32.88,32.88,0,0,1,10.19,10.39A42.93,42.93,0,0,1,172,47.73,52.46,52.46,0,0,1,173.47,61.06Zm-1,0a34.17,34.17,0,0,0-2.77-12.55,31.8,31.8,0,0,0-7.12-10.25,30,30,0,0,0-9.86-6.35A26.24,26.24,0,0,0,142,30.06c-7.17.27-13.88,3.93-18.81,9.62A34.26,34.26,0,0,0,115,61.06a35.91,35.91,0,0,0,6.9,22.38,28.57,28.57,0,0,0,8.77,7.87A24.53,24.53,0,0,0,142,94.56a26.3,26.3,0,0,0,11.78-2.33,30.37,30.37,0,0,0,10.07-7.36,22.89,22.89,0,0,0,2-2.49,21.93,21.93,0,0,0,1.79-2.68,27.85,27.85,0,0,0,1.51-2.86,24.58,24.58,0,0,0,1.24-3A36.32,36.32,0,0,0,172.47,61.06Z"/><polygon class="cls-2" points="165.54 274.54 160.58 273.7 160.81 272.69 165.66 273.85 165.54 274.54"/><polygon class="cls-2" points="153.72 272.1 148.89 270.64 149.49 268.96 154.15 270.67 153.72 272.1"/><polygon class="cls-2" points="142.25 268.19 137.62 266.16 138.73 263.95 143.13 266.19 142.25 268.19"/><polygon class="cls-2" points="131.3 262.92 126.93 260.34 128.68 257.71 132.77 260.46 131.3 262.92"/><polygon class="cls-2" points="121.03 256.34 117.02 253.21 119.47 250.35 123.2 253.54 121.03 256.34"/><polygon class="cls-2" points="111.67 248.47 108.06 244.85 111.25 241.97 114.54 245.58 111.67 248.47"/><polygon class="cls-2" points="103.34 239.45 100.22 235.38 104.2 232.63 106.98 236.63 103.34 239.45"/><polygon class="cls-2" points="96.23 229.38 93.69 224.9 98.48 222.49 100.69 226.8 96.23 229.38"/><polygon class="cls-2" points="90.55 218.38 88.64 213.57 94.29 211.68 95.84 216.25 90.55 218.38"/><polygon class="cls-2" points="86.58 206.53 85.48 201.46 92.04 200.43 92.77 205.19 86.58 206.53"/><path class="cls-2" d="M84.46,194.24c-.11-1.73-.22-3.47-.3-5.21l7.22-.07c.05,1.59.08,3.18.1,4.78Z"/><path class="cls-2" d="M84.38,181.72c.19-1.74.4-3.47.63-5.2l7.09,1c-.14,1.59-.29,3.17-.47,4.74Z"/><polygon class="cls-2" points="86.57 169.36 88.14 164.37 94.31 166.33 93.19 170.96 86.57 169.36"/><polygon class="cls-2" points="90.99 157.63 93.47 153.04 98.23 155.56 96.38 159.97 90.99 157.63"/><path class="cls-2" d="M97.58,147c1.1-1.34,2.24-2.64,3.35-3.94l2.94,2.34c-.86,1.38-1.69,2.77-2.56,4.12Z"/><path class="cls-2" d="M106.15,138.15c1.34-1.06,2.72-2.07,4.07-3.08l1,1.13c-1.09,1.26-2.15,2.52-3.24,3.74Z"/><text class="cls-3" transform="translate(401.23 128.24)">Osteopatia</text><text class="cls-4" transform="translate(222.74 225.19)"><tspan xml:space="preserve">    Biodinàmica i Tissular</tspan></text></svg>