<svg xmlns="http://www.w3.org/2000/svg" viewBox="0 0 127 120" fill-rule="evenodd" stroke-linejoin="round" stroke-miterlimit="2">
	<g transform="matrix(.954734 0 0 .952342 -52.5104 -59.9975)">
		<clipPath id="A">
			<path d="M55 63h132.551v125.897H55z"/>
		</clipPath>
		<g clip-path="url(#A)">
			<path d="M184.616 153.685c1.858.834 3.03 2.748 2.929 4.819-.27 5.25-1.843 14.881-9.395 22.046-6.183 5.862-13.466 7.307-16.321 7.835-3.372.633-7.989.961-16.08-.752-9.708-2.056-18.411-5.779-27.951-11.388-16.125-9.475-26.939-19.805-31.164-24.028-8.469-8.46-20.676-20.892-27.951-39.966-3.467-9.102-4.195-15.447-3.707-21.25.844-10.129 5.229-17.019 6.183-18.464a37.04 37.04 0 0 1 6.503-7.485c1.566-1.378 3.553-2.131 5.608-2.131h10.488c2.199 0 4.188 1.334 5.054 3.397l11.718 27.624c1.318 3.121.677 6.748-1.639 9.191l-8.659 9.153c-1.297 1.37-1.617 3.426-.787 5.139a71.26 71.26 0 0 0 4.362 7.724c10.057 15.477 23.786 23.246 31.163 27.319 2.462 1.356 5.899 3.121 10.197 4.909 1.697.708 3.655.186 4.785-1.304l10.706-14.106a4.17 4.17 0 0 1 5.025-1.303l28.934 13.019z" fill="#6d8557" fill-rule="nonzero"/>
		</g>
	</g>
</svg>