<?xml version="1.0" encoding="UTF-8" standalone="no"?>
<!DOCTYPE svg PUBLIC "-//W3C//DTD SVG 1.1//EN" "http://www.w3.org/Graphics/SVG/1.1/DTD/svg11.dtd">
<svg width="100%" height="100%" viewBox="0 0 127 120" version="1.1" xmlns="http://www.w3.org/2000/svg" xmlns:xlink="http://www.w3.org/1999/xlink" xml:space="preserve" xmlns:serif="http://www.serif.com/" style="fill-rule:evenodd;clip-rule:evenodd;stroke-linejoin:round;stroke-miterlimit:2;">
    <g id="Artboard2" transform="matrix(0.954734,0,0,0.952342,-52.5104,-59.9975)">
        <rect x="55" y="63" style="fill:none;"/>
        <clipPath id="_clip1">
            <rect x="55" y="63" width="132.551" height="125.897"/>
        </clipPath>
        <g clip-path="url(#_clip1)">
            <g transform="matrix(1.04741,0,0,1.05004,-65.4524,-66.1553)">
                <path d="M238.749,209.364C240.523,210.158 241.642,211.981 241.545,213.953C241.287,218.953 239.785,228.125 232.575,234.948C226.672,240.531 219.719,241.907 216.993,242.41C213.774,243.013 209.366,243.325 201.641,241.694C192.372,239.736 184.063,236.19 174.955,230.849C159.56,221.826 149.235,211.988 145.202,207.966C137.116,199.909 125.462,188.07 118.516,169.905C115.206,161.237 114.511,155.194 114.977,149.668C115.783,140.022 119.969,133.46 120.88,132.084C122.91,128.999 125.142,126.665 127.089,124.956C128.584,123.644 130.481,122.927 132.443,122.927L142.456,122.927C144.555,122.927 146.454,124.197 147.281,126.162C151.008,134.929 154.742,143.703 158.469,152.47C159.727,155.442 159.115,158.896 156.904,161.223L148.637,169.94C147.399,171.245 147.093,173.203 147.886,174.834C148.894,176.906 150.257,179.438 152.051,182.19C161.653,196.929 174.76,204.328 181.803,208.207C184.154,209.498 187.435,211.179 191.538,212.882C193.158,213.556 195.028,213.059 196.106,211.64C199.513,207.165 202.92,202.682 206.327,198.206C207.46,196.724 209.435,196.213 211.125,196.965C220.331,201.1 229.544,205.228 238.749,209.364Z" style="fill:hsl(91, 21%, 43%);fill-rule:nonzero;"/>
            </g>
        </g>
    </g>
</svg>
