<?xml version="1.0" encoding="UTF-8" standalone="no"?>
<!DOCTYPE svg PUBLIC "-//W3C//DTD SVG 1.1//EN" "http://www.w3.org/Graphics/SVG/1.1/DTD/svg11.dtd">
<svg width="100%" height="100%" viewBox="0 0 248 255" version="1.1" xmlns="http://www.w3.org/2000/svg" xmlns:xlink="http://www.w3.org/1999/xlink" xml:space="preserve" xmlns:serif="http://www.serif.com/" style="fill-rule:evenodd;clip-rule:evenodd;stroke-linejoin:round;stroke-miterlimit:2;">
    <g id="Artboard1" transform="matrix(0.888796,0,0,0.940959,-20.4423,-40.4613)">
        <rect x="23" y="43" width="278.766" height="271" style="fill:none;"/>
        <g transform="matrix(1.12512,0,0,1.06275,-37.7564,-14.3882)">
            <path d="M280.906,181.708C280.906,124.119 235.148,77.44 178.695,77.44C122.243,77.44 76.484,124.119 76.484,181.708C76.484,204.171 83.444,224.954 95.285,241.978L95.285,241.985L83.965,279.947L123.432,269.435C139.361,279.904 158.33,285.976 178.695,285.976C235.148,285.976 280.906,239.296 280.906,181.708ZM178,54.742C246.356,54.742 301.766,111.266 301.766,180.998C301.766,250.73 246.356,307.255 178,307.255C156.64,307.255 136.552,301.737 119.017,292.019L119.003,292.019L54.234,308.901L71.422,245.226L71.422,245.219C60.499,226.408 54.234,204.455 54.234,180.998C54.234,111.266 109.644,54.742 178,54.742Z" style="fill:hsl(91, 21%, 43%);fill-rule:nonzero;"/>
            <path d="M238.749,209.364C240.523,210.158 241.642,211.981 241.545,213.953C241.287,218.953 239.785,228.125 232.575,234.948C226.672,240.531 219.719,241.907 216.993,242.41C213.774,243.013 209.366,243.325 201.641,241.694C192.372,239.736 184.063,236.19 174.955,230.849C159.56,221.826 149.235,211.988 145.202,207.966C137.116,199.909 125.462,188.07 118.516,169.905C115.206,161.237 114.511,155.194 114.977,149.668C115.783,140.022 119.969,133.46 120.88,132.084C122.91,128.999 125.142,126.665 127.089,124.956C128.584,123.644 130.481,122.927 132.443,122.927L142.456,122.927C144.555,122.927 146.454,124.197 147.281,126.162C151.008,134.929 154.742,143.703 158.469,152.47C159.727,155.442 159.115,158.896 156.904,161.223L148.637,169.94C147.399,171.245 147.093,173.203 147.886,174.834C148.894,176.906 150.257,179.438 152.051,182.19C161.653,196.929 174.76,204.328 181.803,208.207C184.154,209.498 187.435,211.179 191.538,212.882C193.158,213.556 195.028,213.059 196.106,211.64C199.513,207.165 202.92,202.682 206.327,198.206C207.46,196.724 209.435,196.213 211.125,196.965C220.331,201.1 229.544,205.228 238.749,209.364Z" style="fill:hsl(91, 21%, 43%);fill-rule:nonzero;"/>
        </g>
    </g>
</svg>
