<svg xmlns="http://www.w3.org/2000/svg" viewBox="0 0 284 284">
	<circle cx="142" cy="142" r="142"/>
	<g>
		<path d="M148.19 284.73a89.9 89.9 0 0 1-37.86-12.5 96.06 96.06 0 0 1-45.21-66.31A90.1 90.1 0 0 1 64.07 185a88.19 88.19 0 0 1 1.33-10.38 74.38 74.38 0 0 1 2.6-10.16 76 76 0 0 1 23.29-34.18 85.56 85.56 0 0 1 17.1-11.15 87.39 87.39 0 0 1 19-6.84 88.61 88.61 0 0 1 39.88-.26 71 71 0 0 1 18.94 7.4 68.51 68.51 0 0 1 16.13 12.81 64.76 64.76 0 0 1 11.6 17.43 62.44 62.44 0 0 1 3.59 10 66 66 0 0 1 1.82 10.57 60.65 60.65 0 0 1 0 10.78l-.28 2.69-.41 2.68-1.25 5.41A53.87 53.87 0 0 1 207 211.44a56.08 56.08 0 0 1-17.43 13.92 57.36 57.36 0 0 1-32.8 5.89l-2.79-.41a23.73 23.73 0 0 1-2.8-.53 44.86 44.86 0 0 1-5.6-1.62l-2.75-1-2.64-1.27-1.31-.64-1.26-.75-2.5-1.53a47.2 47.2 0 0 1-8.83-7.68 48 48 0 0 1-6.68-9.6 45.78 45.78 0 0 1-2.36-5.37l-.95-2.78-.7-2.85-.33-1.43-.22-1.46-.4-2.91-.13-2.93a22 22 0 0 1 0-2.93l.19-2.92c.06-1 .3-1.93.44-2.89s.3-1.9.57-2.87l.83-2.92a38.83 38.83 0 0 1 5.58-10.65 38 38 0 0 1 8.61-8.2l2.49-1.6 2.6-1.38a41.75 41.75 0 0 1 5.48-2.09 36.15 36.15 0 0 1 11.48-1.58 22.91 22.91 0 0 1 2.87.17 22.42 22.42 0 0 1 2.85.36l2.81.56 2.83.86a31.38 31.38 0 0 1 10.08 5.92 29.91 29.91 0 0 1 7 9.11 28.61 28.61 0 0 1 2.9 11v2.82c0 .93-.18 1.87-.27 2.8s-.37 1.83-.56 2.74-.56 1.82-.88 2.7a22.65 22.65 0 0 1-6.55 9 22.3 22.3 0 0 1-9.69 4.5 21.67 21.67 0 0 1-10.27-.56l.31-1.47a20.57 20.57 0 0 0 9.07-1.19 18.62 18.62 0 0 0 7.2-4.9 16.86 16.86 0 0 0 3.86-7.32l.33-2 .15-2.09-.06-2.08-.28-2a21.1 21.1 0 0 0-8.49-13.34 20.7 20.7 0 0 0-7.07-3.19l-1.9-.36-2-.2a13.51 13.51 0 0 0-2-.07 13.37 13.37 0 0 0-2 .06 25.61 25.61 0 0 0-7.67 1.73 29 29 0 0 0-3.52 1.66l-1.63 1c-.55.34-1 .79-1.54 1.16a24.36 24.36 0 0 0-5.12 5.57 25.65 25.65 0 0 0-3 6.76l-.4 1.81c-.15.6-.17 1.3-.26 1.93a18.41 18.41 0 0 0-.2 1.95v2a12.54 12.54 0 0 0 .08 1.94l.16 1.94.36 1.91.16 1 .28.93.53 1.87.72 1.81a33.12 33.12 0 0 0 1.65 3.52 31.35 31.35 0 0 0 4.6 6.26 32.45 32.45 0 0 0 2.8 2.7 14.78 14.78 0 0 0 1.53 1.21l1.57 1.15 1.67 1 .84.51.88.41 1.76.85 1.83.7a27.88 27.88 0 0 0 3.74 1.14 13.74 13.74 0 0 0 2 .4l2 .33a45.09 45.09 0 0 0 8.21.38 42.6 42.6 0 0 0 29.28-13.62 40.59 40.59 0 0 0 8.4-14.29l1.16-4 .46-2.13.36-2.14a58.88 58.88 0 0 0 .66-8.71 56.43 56.43 0 0 0-2.92-17.38A56.66 56.66 0 0 0 166 116.92a70.41 70.41 0 0 0-37.42.06A68.07 68.07 0 0 0 97 136.29 71.91 71.91 0 0 0 80 168a94.9 94.9 0 0 0-2.51 17.85 96.42 96.42 0 0 0 .81 18.05A93.6 93.6 0 0 0 90.46 238a99.75 99.75 0 0 0 24.4 27.63 109.91 109.91 0 0 0 33.63 17.69zm25.38-223.67a47.58 47.58 0 0 1-7.91 25.25 33.18 33.18 0 0 1-10 9.58 11.3 11.3 0 0 1-1.56.87l-1.6.8a14 14 0 0 1-1.66.67l-1.71.61-3.53.83c-1.18.28-2.41.26-3.63.39A30.43 30.43 0 0 1 127.74 97a35.47 35.47 0 0 1-11.53-9 44 44 0 0 1-10-26.95 45.8 45.8 0 0 1 8.46-28.18 30.26 30.26 0 0 1 2.47-3 26.67 26.67 0 0 1 2.86-2.7 34.75 34.75 0 0 1 6.51-4.5A31.42 31.42 0 0 1 142 19.06a29.23 29.23 0 0 1 15 4.73 32.87 32.87 0 0 1 10.23 10.8 44.59 44.59 0 0 1 5.1 13.06 55.5 55.5 0 0 1 1.24 13.41zm-1.2 0a33 33 0 0 0-2.9-12.48 30.61 30.61 0 0 0-7.31-10 29.75 29.75 0 0 0-9.82-6A26.12 26.12 0 0 0 142 31.06c-6.83.35-13.19 3.78-18 9.24a33.18 33.18 0 0 0-8.14 20.76 35.23 35.23 0 0 0 6.61 22A28.26 28.26 0 0 0 131 90.8a24.15 24.15 0 0 0 11 3.26 26.26 26.26 0 0 0 11.61-2.16 30.16 30.16 0 0 0 10.08-7.17 32.16 32.16 0 0 0 6.63-10.92 35.23 35.23 0 0 0 2.05-12.75zm-1.76 213.68l-4.99-.75.37-1.59 4.81 1.26-.19 1.08zm-11.91-2.23l-4.88-1.39.95-2.64 4.62 1.78-.69 2.25z"/>
		<path d="M147.1 268.76l-4.69-1.97 1.74-3.47 4.34 2.3-1.39 3.14zm-11.11-5.13l-4.45-2.54 2.74-4.13 4.01 2.79-2.3 3.88zm-10.47-6.48l-4.11-3.11 3.88-4.52 3.64 3.22-3.41 4.41zm-9.6-7.82l-3.71-3.61 5.1-4.62 3.19 3.62-4.58 4.61zm-8.58-9.02l-3.2-4.11 6.35-4.39 2.7 3.96-5.85 4.54zm-7.3-10.17l-2.63-4.54 7.57-3.81 2.12 4.26-7.06 4.09zm-5.88-11.15l-1.99-4.89 8.81-2.95 1.46 4.49-8.28 3.35zm-4.24-12.08l-1.21-5.16 10.31-1.61.62 4.67-9.72 2.1zm-2.36-12.53l-.36-5.33 11.34-.11v4.66zm-.16-12.83l.68-5.32 11.16 1.61-.42 4.61zm2.37-12.66l1.7-5.09 9.73 3.1-1 4.53zM94.54 157l2.67-4.63 7.49 4-1.65 4.38zm7.07-10.68l3.57-3.9 4.65 3.7-2.34 4.16zm9.13-8.68l4.3-2.9 1.54 1.78-3 3.93z"/>
	</g>

	<style>
		circle {
			fill: #6d8556;
		}

		g {
			fill: #ffffff;
		}
	</style>
</svg>
